<?xml version="1.0" standalone="no"?>
<!DOCTYPE svg PUBLIC "-//W3C//DTD SVG 20010904//EN"
 "http://www.w3.org/TR/2001/REC-SVG-20010904/DTD/svg10.dtd">
<svg version="1.0" xmlns="http://www.w3.org/2000/svg"
 width="800.000000pt" height="800.000000pt" viewBox="0 0 800.000000 800.000000"
 preserveAspectRatio="xMidYMid meet">
<metadata>
Created by potrace 1.11, written by Peter Selinger 2001-2013
</metadata>
<g transform="translate(0.000000,800.000000) scale(0.100000,-0.100000)"
fill="#000000" stroke="none">
<path d="M6800 7582 c0 -5 -46 -17 -102 -27 -57 -10 -110 -23 -118 -30 -8 -6
-46 -27 -85 -46 -38 -19 -76 -42 -83 -51 -7 -10 -18 -18 -23 -18 -6 0 -25 -11
-43 -25 -18 -14 -36 -25 -40 -25 -4 0 -26 -9 -49 -19 -23 -11 -59 -22 -79 -26
-21 -4 -38 -10 -38 -14 0 -4 -40 -15 -90 -25 -49 -10 -90 -21 -90 -25 0 -4
-24 -13 -52 -21 -29 -7 -67 -24 -84 -36 -17 -13 -36 -24 -42 -24 -7 0 -12 -4
-12 -10 0 -5 -6 -10 -13 -10 -15 0 -153 -135 -151 -147 1 -5 -7 -25 -17 -45
-10 -21 -19 -51 -19 -67 0 -16 -4 -31 -8 -33 -5 -1 -16 -50 -25 -107 -9 -57
-21 -109 -25 -115 -5 -6 -15 -33 -22 -61 -7 -27 -17 -56 -23 -62 -5 -7 -6 -13
-2 -13 4 0 3 -6 -2 -12 -6 -7 -16 -35 -22 -63 -7 -27 -16 -54 -21 -60 -4 -5
-16 -39 -25 -75 -9 -36 -20 -69 -24 -75 -4 -5 -14 -32 -21 -60 -7 -27 -16 -54
-20 -60 -4 -5 -15 -35 -25 -65 -10 -30 -21 -57 -25 -60 -3 -3 -12 -21 -19 -40
-21 -59 -65 -145 -78 -153 -7 -4 -13 -13 -13 -20 -1 -7 -14 -28 -30 -47 -17
-19 -30 -40 -30 -47 0 -25 -42 -33 -181 -33 -164 0 -419 19 -433 31 -6 5 -28
9 -49 9 -45 0 -212 28 -242 40 -11 4 -60 15 -110 25 -49 9 -92 20 -95 24 -3 5
-21 12 -40 16 -19 4 -48 13 -65 20 -16 6 -55 20 -85 30 -101 34 -230 166 -230
237 0 13 -7 36 -15 52 -8 16 -22 56 -31 90 -9 33 -19 66 -23 71 -4 6 -14 33
-21 60 -8 28 -19 59 -25 70 -7 11 -18 43 -25 70 -8 28 -16 52 -20 55 -3 3 -14
24 -23 48 -9 23 -29 61 -44 85 -15 23 -26 45 -25 50 1 4 -2 7 -6 7 -5 0 -15
18 -22 40 -7 22 -16 40 -20 40 -4 0 -13 13 -20 29 -14 35 -186 206 -217 215
-13 4 -23 12 -23 17 0 5 -5 9 -10 9 -6 0 -39 13 -73 29 -34 15 -93 34 -132 41
-38 7 -81 21 -94 31 -13 11 -29 19 -37 19 -7 0 -14 4 -16 8 -5 13 -109 68
-153 81 -22 7 -53 19 -70 26 -16 7 -51 16 -78 20 -26 4 -50 11 -53 16 -7 12
-141 11 -149 -1 -3 -5 -27 -10 -53 -10 -78 0 -327 -23 -332 -32 -3 -4 -120
-12 -260 -19 -161 -7 -262 -16 -275 -23 -11 -7 -45 -20 -76 -30 -77 -24 -222
-98 -274 -140 -23 -19 -73 -67 -111 -106 -80 -83 -134 -113 -233 -130 -39 -6
-71 -16 -71 -21 0 -5 -7 -9 -15 -9 -29 0 -175 -114 -175 -137 0 -5 -18 -26
-39 -47 -21 -21 -47 -56 -56 -77 -10 -21 -22 -39 -27 -39 -4 0 -8 -5 -8 -11 0
-6 -13 -29 -29 -52 -16 -23 -32 -62 -36 -87 -4 -25 -12 -51 -17 -57 -13 -17
-12 -363 2 -377 5 -5 10 -25 10 -44 0 -32 26 -126 40 -147 4 -5 13 -31 20 -57
7 -27 16 -48 20 -48 4 0 12 -19 19 -42 7 -24 19 -56 26 -73 43 -94 55 -203 34
-295 -8 -37 -53 -139 -88 -200 -20 -35 -50 -108 -60 -147 -6 -23 -16 -43 -22
-45 -20 -7 -35 -222 -24 -324 6 -51 16 -98 22 -105 9 -13 47 -114 48 -131 0
-3 3 -10 7 -14 12 -11 10 -82 -2 -89 -6 -3 -10 -15 -10 -25 0 -18 -28 -88 -40
-100 -8 -8 -28 -53 -35 -77 -4 -13 -11 -23 -16 -23 -5 0 -9 -18 -9 -40 0 -22
5 -40 10 -40 6 0 10 -6 10 -14 0 -7 16 -33 35 -57 19 -24 35 -49 35 -56 0 -7
6 -16 13 -20 18 -12 37 -59 37 -94 0 -41 -21 -121 -35 -136 -16 -15 -26 -186
-14 -222 6 -16 18 -32 27 -35 9 -3 35 -12 57 -19 99 -33 125 -49 125 -79 0
-15 -4 -28 -9 -28 -5 0 -12 -17 -16 -38 -3 -20 -13 -47 -21 -60 -8 -12 -15
-39 -15 -60 0 -20 -2 -74 -5 -119 -4 -56 -3 -83 5 -83 6 0 8 -7 5 -15 -4 -8
-2 -21 4 -28 5 -6 12 -30 16 -52 4 -22 19 -66 34 -98 26 -56 28 -58 59 -53 18
2 47 16 65 29 18 14 50 28 71 32 32 6 42 4 63 -16 36 -34 44 -78 44 -247 0
-334 -35 -447 -160 -516 -19 -10 -48 -34 -63 -52 l-29 -34 10 -172 c6 -95 15
-174 20 -176 5 -1 7 -14 4 -28 -3 -15 0 -29 5 -33 6 -3 16 -55 23 -116 7 -60
16 -119 20 -130 5 -11 16 -108 25 -215 10 -107 21 -200 26 -205 4 -6 11 -50
15 -98 l7 -87 186 0 c102 0 251 3 329 7 l144 6 -7 66 c-4 36 -13 78 -20 93 -7
15 -16 41 -20 57 -7 31 -85 111 -107 111 -7 0 -43 14 -79 32 -63 31 -67 35
-63 63 2 17 8 86 14 154 5 69 13 127 18 130 5 3 15 40 23 81 7 41 20 86 29
100 33 53 41 66 58 102 9 21 21 38 26 38 5 0 30 20 55 45 25 25 75 67 111 94
36 28 73 57 83 65 9 9 20 16 25 16 9 0 372 363 372 373 0 4 9 17 20 30 42 47
50 57 50 65 0 4 13 23 30 42 16 19 29 40 30 46 0 7 7 14 15 18 8 3 15 10 15
16 0 12 61 106 85 131 8 9 15 20 15 26 0 5 13 27 30 49 16 21 30 45 30 52 0 6
5 12 10 12 6 0 10 5 10 11 0 6 10 25 22 42 32 45 226 435 233 469 4 15 11 28
16 28 5 0 12 12 15 26 7 28 75 96 102 102 45 9 232 14 232 5 0 -5 22 -9 50 -7
27 1 50 -1 50 -5 0 -5 61 -14 135 -21 74 -7 135 -16 135 -20 0 -3 44 -14 98
-24 53 -10 102 -22 107 -26 6 -4 48 -15 95 -24 47 -10 94 -21 105 -26 11 -4
42 -14 70 -20 27 -6 54 -15 60 -20 5 -4 39 -16 75 -25 36 -9 70 -20 75 -24 6
-4 31 -14 58 -21 26 -7 47 -16 47 -21 0 -4 16 -16 36 -25 39 -19 384 -371 397
-406 4 -12 11 -25 16 -28 4 -3 13 -21 20 -40 7 -19 19 -48 26 -65 8 -16 19
-61 25 -100 6 -38 18 -83 25 -100 7 -16 17 -48 21 -70 4 -22 15 -51 25 -64 11
-13 19 -30 19 -37 0 -8 6 -14 14 -14 7 0 19 -7 26 -15 7 -8 23 -15 36 -15 13
0 24 -4 24 -8 0 -5 30 -14 66 -22 l67 -13 -6 -81 c-3 -44 -10 -82 -16 -84 -5
-2 -3 -10 5 -20 9 -9 38 -45 65 -80 44 -57 49 -69 49 -113 0 -28 -5 -71 -11
-95 -13 -51 4 -154 26 -154 7 0 20 -10 31 -21 10 -12 39 -30 63 -41 27 -11 81
-55 136 -108 50 -50 94 -90 98 -90 4 0 26 -20 49 -45 23 -25 45 -45 50 -45 4
0 17 -8 27 -18 10 -9 58 -48 106 -87 132 -106 365 -351 365 -383 0 -5 18 -15
40 -22 22 -7 40 -17 40 -22 0 -4 104 -8 230 -8 147 0 230 4 230 10 0 6 14 10
31 10 l31 0 -4 88 c-3 58 -11 102 -25 132 -11 25 -23 53 -26 62 -4 10 -12 18
-19 18 -7 0 -30 9 -51 20 -20 11 -42 20 -48 20 -10 0 -91 53 -116 77 -7 6 -22
14 -32 18 -15 4 -20 20 -26 78 -4 39 -10 77 -15 82 -4 6 -16 69 -25 140 -10
72 -22 135 -27 142 -12 15 -10 533 1 547 5 6 17 52 26 101 9 50 20 97 25 106
4 9 14 50 21 92 7 43 18 77 23 77 6 0 27 18 46 40 19 22 39 40 44 40 4 0 26
17 46 38 25 25 60 45 97 58 32 10 64 25 71 32 7 6 14 13 15 14 1 0 102 4 225
7 151 4 225 10 230 18 4 6 35 17 70 23 34 7 62 17 62 21 0 5 9 9 19 9 17 0 81
72 81 91 0 5 13 28 30 52 16 25 30 50 30 56 0 6 5 11 10 11 6 0 10 7 10 15 0
12 15 15 75 15 43 0 75 -4 75 -10 0 -16 66 -12 80 5 7 8 17 15 22 15 16 0 62
54 83 98 11 23 23 42 26 42 3 0 11 19 18 43 7 23 16 49 20 57 5 8 7 23 5 33
-1 9 1 17 6 17 5 0 14 41 21 90 6 50 16 90 20 90 5 0 9 12 9 26 0 23 20 54 35
54 27 0 225 163 225 185 0 7 6 15 13 18 7 3 19 23 27 46 7 23 16 41 20 41 4 0
11 17 15 38 3 20 13 47 20 58 8 12 21 50 30 85 9 35 20 73 25 84 11 25 40 210
40 259 0 20 5 36 10 36 12 0 14 242 2 256 -5 5 -17 44 -27 87 -11 42 -22 77
-25 77 -4 0 -13 19 -20 43 -7 23 -21 56 -31 72 -9 17 -20 49 -24 73 -4 23 -11
42 -16 42 -5 0 -9 29 -9 65 0 80 -18 165 -36 172 -8 3 -14 10 -14 15 0 6 -16
32 -35 58 -19 26 -35 50 -35 54 0 9 -187 196 -196 196 -10 0 -28 16 -113 101
-99 100 -101 102 -101 141 0 34 2 36 42 42 23 4 51 16 62 27 51 49 152 129
163 129 7 0 13 3 13 8 0 9 147 116 173 125 9 3 17 11 17 17 0 5 6 10 13 10 20
0 125 112 132 143 4 15 11 30 16 33 12 7 12 167 0 180 -5 5 -16 35 -26 67 -10
31 -21 57 -26 57 -4 0 -14 11 -21 24 -20 37 -123 160 -159 190 -23 20 -38 26
-53 21 -68 -23 -139 -17 -151 12 -7 18 -23 98 -29 143 -1 14 -5 32 -9 40 -3 8
-10 62 -16 120 -6 58 -16 107 -21 108 -6 2 -10 12 -10 22 0 10 -19 34 -42 55
-78 67 -146 137 -159 164 -8 14 -20 30 -26 34 -7 4 -13 14 -13 21 0 35 -136
120 -210 132 -22 4 -43 11 -46 15 -7 11 -114 12 -114 1z"/>
</g>
</svg>
